<svg width="24" height="24" viewBox="0 0 24 24" fill="none" xmlns="http://www.w3.org/2000/svg">
<path fill-rule="evenodd" clip-rule="evenodd" d="M8.08674 4.0625C9.77066 1.14583 13.9805 1.14583 15.6645 4.0625L22.2679 15.5C23.9518 18.4167 21.8469 22.0625 18.479 22.0625H5.27216C1.90428 22.0625 -0.200647 18.4167 1.48329 15.5L8.08674 4.0625ZM14.5819 4.6875C13.3791 2.60418 10.3721 2.60418 9.16926 4.6875L2.56584 16.125C1.36301 18.2083 2.86654 20.8125 5.27216 20.8125H18.479C20.8847 20.8125 22.3882 18.2083 21.1854 16.125L14.5819 4.6875ZM12.0006 10.125C12.3458 10.125 12.6256 10.4048 12.6256 10.75V13.625C12.6256 13.9702 12.3458 14.25 12.0006 14.25C11.6554 14.25 11.3756 13.9702 11.3756 13.625V10.75C11.3756 10.4048 11.6554 10.125 12.0006 10.125ZM12.0006 16.4248C12.3458 16.4248 12.6256 16.145 12.6256 15.7998C12.6256 15.4546 12.3458 15.1748 12.0006 15.1748C11.6554 15.1748 11.3756 15.4546 11.3756 15.7998C11.3756 16.145 11.6554 16.4248 12.0006 16.4248Z" fill="#F54336"/>
</svg>
